<svg width="378" height="332" viewBox="0 0 378 332" fill="none" xmlns="http://www.w3.org/2000/svg">
<path opacity="0.1" d="M146 303.6C146.4 303.6 146.8 303.7 147.3 303.7C156.2 304.9 164.8 307.4 173 311.3C189.8 319.3 206.3 328.3 224.9 330.7C243 333 261.6 328.8 277.8 320.6C285.1 316.9 292 312.2 297.9 306.3C304.2 300 308.7 292.7 312.8 284.8C321 269 328 252.4 338.8 238.2C341.8 234.3 345 230.5 348.5 227.1C353.3 222.4 357.9 217.3 361.8 211.8C368.1 202.9 373.6 193.7 376.2 183.2C381.4 162.7 374.7 141 364.7 122.3C354.7 103.6 341.5 86.7999 332 67.8999C320.6 45.2999 312.9 17.8999 290.3 6.0999C272.1 -3.4001 249.8 0.499904 230.5 7.5999C211.2 14.6999 192.7 24.8999 172.3 26.8999C144.6 29.6999 118 18.7999 91.5999 19.7999C48.5999 21.3999 1.89991 58.2999 0.899914 103.5C0.399914 126.3 20.1999 130.9 32.6999 145.9C47.4999 163.7 40.2999 188.8 32.1999 207.9C23.5999 228 13.5999 250.9 22.9999 270.6C33.5999 292.9 62.7999 298.4 87.5999 298.3C107.2 298.3 128.3 296.8 146 303.6Z" fill="#629FDD"/>
<path d="M183 225V282H153H103.1V225H183ZM154.2 239.9V235.4H130.8V239.9H154.2Z" fill="white"/>
<path d="M270.199 225V282H240.199H190.299V225H270.199ZM241.299 239.9V235.4H217.899V239.9H241.299Z" fill="white"/>
<path d="M270.199 149.2V206.2H240.199H190.299V149.2H270.199ZM241.299 164.1V159.6H217.899V164.1H241.299Z" fill="white"/>
<path d="M92.3992 206.3H73.1992V146.2H84.0992H150.899V149.2V206.2H103.199H92.3992V206.3ZM123.899 164.2V159.5H100.699V164.2H123.899Z" fill="white"/>
<path d="M180.899 149.2V206.3H150.899H103.199H150.899V149.2H172.299H180.899Z" fill="#F2F2F2"/>
<path d="M173.499 40.1997V53.2997H173.299H92.2988L110.099 41.4997C111.299 40.6997 112.799 40.1997 114.299 40.1997H173.499Z" fill="#629FDD"/>
<path d="M162.599 125.3V125.4H125.499C124.999 125.4 124.499 125.2 124.199 124.9L114.799 116C114.399 115.7 113.999 115.5 113.499 115.5H103.199V115.4V72.6997H162.499H162.599V125.3ZM154.199 87.4997V82.9997H130.799V87.4997H154.199Z" fill="white"/>
<path d="M92.3984 53.2998H173.398H173.498V69.9998H162.598V72.5998H162.498H103.198V115.3V115.4H92.3984V115.2V53.2998Z" fill="#629FDD"/>
<path d="M173.5 69.9999H240.3V72.9999V130H192.6H172.3H172.2V127.2C172.2 126.2 171.3 125.3 170.3 125.3H162.5V125.2V72.5999V69.8999H173.5V69.9999ZM213.3 87.9999V83.2999H190.1V87.9999H213.3Z" fill="white"/>
<path d="M280.798 73V305.5H94.3984C93.2984 305.5 92.3984 304.6 92.3984 303.6V206.3H103.298H150.998H180.998V149.3H172.398V130.1H172.498H192.798H240.498H270.498V73.1H280.798V73ZM270.198 282V225H190.298V282H240.198H270.198ZM270.198 206.3V149.3H190.298V206.3H240.198H270.198ZM182.998 282V225H103.098V282H152.998H182.998Z" fill="#629FDD"/>
<path d="M280.799 53.2998V72.9998H270.399H261.799V53.2998H261.899H280.799Z" fill="#629FDD"/>
<path d="M261.799 73H270.399V130H240.299V73H261.799Z" fill="#F2F2F2"/>
<path d="M297.899 40.1997C299.799 40.1997 301.299 41.6997 301.299 43.5997V287C301.299 288.5 300.599 289.8 299.499 290.8L280.799 305.5V53.2997H261.699V51.1997C261.699 50.1997 260.799 49.2997 259.799 49.2997H214.999C214.499 49.2997 213.999 49.0997 213.599 48.7997L206.199 40.2997H297.899V40.1997Z" fill="#629FDD"/>
<path d="M206.2 40.1999L213.6 48.6999C214 48.9999 214.4 49.1999 215 49.1999H259.9C261 49.1999 261.8 49.9999 261.8 51.0999V53.1999V72.9999H240.4V69.9999H173.6V53.2999V40.1999V39.2999C173.6 38.2999 174.5 37.3999 175.5 37.3999H202.9C203.4 37.3999 203.9 37.5999 204.2 37.8999L206.2 40.1999Z" fill="#F15A24"/>
<path d="M172.3 130V149.2H150.9V146.2H84.0996V146.1V117.3C84.0996 116.3 84.9996 115.4 85.9996 115.4H92.3996H103.2H113.5C114 115.4 114.5 115.6 114.8 115.9L124.2 124.8C124.6 125.1 125 125.3 125.5 125.3H162.6H170.4C171.5 125.3 172.3 126.1 172.3 127.2V130Z" fill="#FFF892"/>
<path d="M241.298 235.4H217.898V239.9H241.298V235.4Z" fill="#00A08D"/>
<path d="M154.199 235.4H130.799V239.9H154.199V235.4Z" fill="#F15A24"/>
<path d="M241.298 159.6H217.898V164.1H241.298V159.6Z" fill="#FFF892"/>
<path d="M123.899 159.5H100.699V164.2H123.899V159.5Z" fill="#FFF892"/>
<path d="M213.399 83.2998H190.199V87.9998H213.399V83.2998Z" fill="#F15A24"/>
<path d="M154.199 83H130.799V87.5H154.199V83Z" fill="#00A08D"/>
<path d="M270.199 149.2V206.3H240.199H190.299V149.2H270.199Z" stroke="#353535" stroke-miterlimit="10" stroke-linecap="round" stroke-linejoin="round"/>
<path d="M241.298 159.6H217.898V164.1H241.298V159.6Z" stroke="#353535" stroke-miterlimit="10" stroke-linecap="round" stroke-linejoin="round"/>
<path d="M270.199 225V282H240.199H190.299V225H270.199Z" stroke="#353535" stroke-miterlimit="10" stroke-linecap="round" stroke-linejoin="round"/>
<path d="M241.298 235.4H217.898V239.9H241.298V235.4Z" stroke="#353535" stroke-miterlimit="10" stroke-linecap="round" stroke-linejoin="round"/>
<path d="M182.999 225V282H152.999H103.199V225H182.999Z" stroke="#353535" stroke-miterlimit="10" stroke-linecap="round" stroke-linejoin="round"/>
<path d="M154.199 235.4H130.799V239.9H154.199V235.4Z" stroke="#353535" stroke-miterlimit="10" stroke-linecap="round" stroke-linejoin="round"/>
<path d="M162.499 72.6001H103.199V115.3" stroke="#353535" stroke-miterlimit="10" stroke-linecap="round" stroke-linejoin="round"/>
<path d="M154.199 83H130.799V87.5H154.199V83Z" stroke="#353535" stroke-miterlimit="10" stroke-linecap="round" stroke-linejoin="round"/>
<path d="M92.3992 206.3H73.1992V146.2H84.0992H150.899V149.2V206.3H103.199H92.3992Z" stroke="#353535" stroke-miterlimit="10" stroke-linecap="round" stroke-linejoin="round"/>
<path d="M103.199 206.3H150.899H180.899V149.2H172.299H150.899" stroke="#353535" stroke-miterlimit="10" stroke-linecap="round" stroke-linejoin="round"/>
<path d="M123.899 159.5H100.699V164.2H123.899V159.5Z" stroke="#353535" stroke-miterlimit="10" stroke-linecap="round" stroke-linejoin="round"/>
<path d="M172.3 149.2V130V127.2C172.3 126.2 171.4 125.3 170.4 125.3H162.6H125.5C125 125.3 124.5 125.1 124.2 124.8L114.8 115.9C114.4 115.6 114 115.4 113.5 115.4H103.2H92.3996H85.9996C84.8996 115.4 84.0996 116.2 84.0996 117.3V146.1" stroke="#353535" stroke-miterlimit="10" stroke-linecap="round" stroke-linejoin="round"/>
<path d="M192.698 130H172.398" stroke="#353535" stroke-miterlimit="10" stroke-linecap="round" stroke-linejoin="round"/>
<path d="M162.6 125.3V72.6V70H173.5H240.3V73V130" stroke="#353535" stroke-miterlimit="10" stroke-linecap="round" stroke-linejoin="round"/>
<path d="M192.699 130H240.299H270.399V73H261.799H240.299" stroke="#353535" stroke-miterlimit="10" stroke-linecap="round" stroke-linejoin="round"/>
<path d="M213.399 83.2998H190.199V87.9998H213.399V83.2998Z" stroke="#353535" stroke-miterlimit="10" stroke-linecap="round" stroke-linejoin="round"/>
<path d="M92.3984 115.2V53.2998H173.398" stroke="#353535" stroke-miterlimit="10" stroke-linecap="round" stroke-linejoin="round"/>
<path d="M261.898 53.2998H280.798V73.0998V305.5H94.3984C93.2984 305.5 92.3984 304.6 92.3984 303.6V206.3" stroke="#353535" stroke-miterlimit="10" stroke-linecap="round" stroke-linejoin="round"/>
<path d="M261.8 73.1V53.3V51.2C261.8 50.2 260.9 49.3 259.9 49.3H215C214.5 49.3 214 49.1 213.6 48.8L206.2 40.3L204.2 38C203.8 37.7 203.4 37.5 202.9 37.5H175.5C174.4 37.5 173.6 38.3 173.6 39.4V40.3V53.4V70.1" stroke="#353535" stroke-miterlimit="10" stroke-linecap="round" stroke-linejoin="round"/>
<path d="M280.799 53.3L299.999 41" stroke="#353535" stroke-miterlimit="10" stroke-linecap="round" stroke-linejoin="round"/>
<path d="M92.3984 53.3002L110.198 41.5002C111.398 40.7002 112.898 40.2002 114.398 40.2002H173.598" stroke="#353535" stroke-miterlimit="10" stroke-linecap="round" stroke-linejoin="round"/>
<path d="M206.1 40.2002H206.3H298C299.9 40.2002 301.4 41.7002 301.4 43.5002V286.9C301.4 288.4 300.7 289.7 299.6 290.7L280.8 305.5" stroke="#353535" stroke-miterlimit="10" stroke-linecap="round" stroke-linejoin="round"/>
<path opacity="0.7" d="M70.9996 251C69.3996 251 68.0996 252.3 68.0996 253.9C68.0996 255.5 69.3996 256.8 70.9996 256.8C72.5996 256.8 73.8996 255.5 73.8996 253.9C73.7996 252.3 72.4996 251 70.9996 251Z" fill="#B7D3EF"/>
<path opacity="0.7" d="M64.8 65.8999C61.8 65.8999 59.5 68.2999 59.5 71.1999C59.5 74.1999 61.9 76.5999 64.8 76.5999C67.8 76.5999 70.2 74.1999 70.2 71.1999C70.2 68.2999 67.8 65.8999 64.8 65.8999Z" fill="#B7D3EF"/>
<path opacity="0.7" d="M42.1992 114.8C40.7992 114.8 39.6992 115.9 39.6992 117.3C39.6992 118.7 40.7992 119.8 42.1992 119.8C43.5992 119.8 44.6992 118.7 44.6992 117.3C44.6992 116 43.5992 114.8 42.1992 114.8Z" fill="#B7D3EF"/>
<path opacity="0.7" d="M232.498 316.2C230.298 316.2 228.398 318 228.398 320.3C228.398 322.5 230.198 324.4 232.498 324.4C234.698 324.4 236.598 322.6 236.598 320.3C236.498 318 234.698 316.2 232.498 316.2Z" fill="#B7D3EF"/>
<path opacity="0.7" d="M348.2 166.6C346 166.6 344.1 168.4 344.1 170.7C344.1 172.9 345.9 174.8 348.2 174.8C350.5 174.8 352.3 173 352.3 170.7C352.3 168.5 350.4 166.6 348.2 166.6Z" fill="#B7D3EF"/>
<g opacity="0.7">
<path d="M322.799 120H319.799V121C319.799 121.8 320.499 122.5 321.299 122.5C322.099 122.5 322.799 121.8 322.799 121V120ZM321.299 114.4C320.499 114.4 319.799 115.1 319.799 115.9V116.9H322.799V115.9C322.799 115.1 322.099 114.4 321.299 114.4Z" fill="#A2A2A2"/>
<path d="M323.799 117H322.799H319.799H318.799C317.999 117 317.299 117.7 317.299 118.5C317.299 119.3 317.999 120 318.799 120H319.799H322.799H323.799C324.599 120 325.299 119.3 325.299 118.5C325.299 117.6 324.699 117 323.799 117Z" fill="#A2A2A2"/>
</g>
<g opacity="0.7">
<path d="M50.6992 223H47.6992V226.6C47.6992 227.4 48.3992 228.1 49.1992 228.1C49.9992 228.1 50.6992 227.4 50.6992 226.6V223ZM49.1992 214.8C48.3992 214.8 47.6992 215.5 47.6992 216.3V219.9H50.6992V216.3C50.6992 215.5 49.9992 214.8 49.1992 214.8Z" fill="#A2A2A2"/>
<path d="M54.2996 220H50.6996H47.6996H44.0996C43.2996 220 42.5996 220.7 42.5996 221.5C42.5996 222.3 43.2996 223 44.0996 223H47.6996H50.6996H54.2996C55.0996 223 55.7996 222.3 55.7996 221.5C55.7996 220.6 55.1996 220 54.2996 220Z" fill="#A2A2A2"/>
</g>
</svg>
