<svg width="446" height="379" viewBox="0 0 446 379" fill="none" xmlns="http://www.w3.org/2000/svg">
<path opacity="0.1" d="M73.4988 207.7C64.9988 227.8 55.0988 250.6 64.3988 270.3C74.7988 292.5 103.699 298.1 128.199 297.9C152.699 297.7 179.799 295.5 199.099 310.6C213.099 321.6 219.999 339.7 233.999 350.7C252.599 365.2 280.199 363.4 300.499 351.5C320.799 339.6 334.999 319.5 346.299 298.8C357.599 278.1 366.599 256.1 379.999 236.8C392.099 219.4 407.899 203.6 412.999 183C418.099 162.6 411.499 140.9 401.699 122.3C391.899 103.7 378.799 86.9001 369.399 68.0001C358.199 45.4001 350.499 18.1001 328.299 6.3001C310.399 -3.1999 288.299 0.700099 269.299 7.8001C250.299 14.9001 231.999 25.0001 211.899 27.1001C184.599 29.9001 158.399 19.1001 132.199 20.0001C89.7988 21.6001 43.6988 58.4001 42.6988 103.5C42.1988 126.3 61.7988 130.8 74.0988 145.8C88.6988 163.5 81.5988 188.6 73.4988 207.7Z" fill="#629FDD"/>
<path d="M228.4 242C266.232 242 296.9 211.332 296.9 173.5C296.9 135.668 266.232 105 228.4 105C190.569 105 159.9 135.668 159.9 173.5C159.9 211.332 190.569 242 228.4 242Z" fill="white"/>
<path d="M120.899 92.2003C145.586 92.2003 165.599 72.1874 165.599 47.5003C165.599 22.8132 145.586 2.80029 120.899 2.80029C96.2121 2.80029 76.1992 22.8132 76.1992 47.5003C76.1992 72.1874 96.2121 92.2003 120.899 92.2003Z" fill="white"/>
<g opacity="0.29">
<path d="M121.099 2.7002C96.2992 2.7002 76.1992 22.8002 76.1992 47.6002C76.1992 72.4002 96.2992 92.5002 121.099 92.5002C145.899 92.5002 165.999 72.4002 165.999 47.6002C165.899 22.8002 145.899 2.7002 121.099 2.7002Z" fill="#606060"/>
</g>
<path d="M339.399 96.9C364.086 96.9 384.099 76.8871 384.099 52.2C384.099 27.5129 364.086 7.5 339.399 7.5C314.712 7.5 294.699 27.5129 294.699 52.2C294.699 76.8871 314.712 96.9 339.399 96.9Z" fill="white"/>
<g opacity="0.3">
<path d="M339.399 7.5C314.699 7.5 294.699 27.5 294.699 52.2C294.699 76.9 314.699 96.9 339.399 96.9C364.099 96.9 384.099 76.9 384.099 52.2C384.099 27.5 364.099 7.5 339.399 7.5Z" fill="#00A08D"/>
</g>
<path d="M399.499 275.6C424.186 275.6 444.199 255.587 444.199 230.9C444.199 206.213 424.186 186.2 399.499 186.2C374.812 186.2 354.799 206.213 354.799 230.9C354.799 255.587 374.812 275.6 399.499 275.6Z" fill="white"/>
<g opacity="0.4">
<path d="M399.499 186.2C374.799 186.2 354.799 206.2 354.799 230.9C354.799 255.6 374.799 275.6 399.499 275.6C424.199 275.6 444.199 255.6 444.199 230.9C444.199 206.2 424.199 186.2 399.499 186.2Z" fill="#629FDD"/>
</g>
<path d="M55.7996 271.1C80.4867 271.1 100.5 251.087 100.5 226.4C100.5 201.713 80.4867 181.7 55.7996 181.7C31.1125 181.7 11.0996 201.713 11.0996 226.4C11.0996 251.087 31.1125 271.1 55.7996 271.1Z" fill="white"/>
<path opacity="0.4" d="M55.7996 181.3C30.8996 181.3 10.5996 201.5 10.5996 226.5C10.5996 251.5 30.7996 271.7 55.7996 271.7C80.7996 271.7 101 251.5 101 226.5C101 201.5 80.6996 181.3 55.7996 181.3Z" fill="#FFF892"/>
<path d="M227.399 377.5C252.086 377.5 272.099 357.487 272.099 332.8C272.099 308.113 252.086 288.1 227.399 288.1C202.712 288.1 182.699 308.113 182.699 332.8C182.699 357.487 202.712 377.5 227.399 377.5Z" fill="white"/>
<g opacity="0.4">
<path d="M227.399 288.1C202.699 288.1 182.699 308.1 182.699 332.8C182.699 357.5 202.699 377.5 227.399 377.5C252.099 377.5 272.099 357.5 272.099 332.8C272.099 308.1 252.099 288.1 227.399 288.1Z" fill="#F15A24"/>
</g>
<path d="M201.3 132.2C204.779 132.2 207.6 129.379 207.6 125.9C207.6 122.421 204.779 119.6 201.3 119.6C197.821 119.6 195 122.421 195 125.9C195 129.379 197.821 132.2 201.3 132.2Z" fill="#629FDD"/>
<path d="M201.499 132.3C204.979 132.3 207.799 129.48 207.799 126C207.799 122.521 204.979 119.7 201.499 119.7C198.02 119.7 195.199 122.521 195.199 126C195.199 129.48 198.02 132.3 201.499 132.3Z" stroke="#353535" stroke-width="2" stroke-miterlimit="10" stroke-linecap="round" stroke-linejoin="round"/>
<path d="M228.698 182C232.178 182 234.998 179.179 234.998 175.7C234.998 172.221 232.178 169.4 228.698 169.4C225.219 169.4 222.398 172.221 222.398 175.7C222.398 179.179 225.219 182 228.698 182Z" fill="#629FDD"/>
<path d="M228.898 182.2C232.377 182.2 235.198 179.379 235.198 175.9C235.198 172.421 232.377 169.6 228.898 169.6C225.418 169.6 222.598 172.421 222.598 175.9C222.598 179.379 225.418 182.2 228.898 182.2Z" stroke="#353535" stroke-width="2" stroke-miterlimit="10" stroke-linecap="round" stroke-linejoin="round"/>
<path d="M238.8 226.8C242.279 226.8 245.1 223.98 245.1 220.5C245.1 217.021 242.279 214.2 238.8 214.2C235.321 214.2 232.5 217.021 232.5 220.5C232.5 223.98 235.321 226.8 238.8 226.8Z" fill="#629FDD"/>
<path d="M238.999 227C242.479 227 245.299 224.18 245.299 220.7C245.299 217.221 242.479 214.4 238.999 214.4C235.52 214.4 232.699 217.221 232.699 220.7C232.699 224.18 235.52 227 238.999 227Z" stroke="#353535" stroke-width="2" stroke-miterlimit="10" stroke-linecap="round" stroke-linejoin="round"/>
<path d="M268.198 152.3C271.678 152.3 274.498 149.48 274.498 146C274.498 142.521 271.678 139.7 268.198 139.7C264.719 139.7 261.898 142.521 261.898 146C261.898 149.48 264.719 152.3 268.198 152.3Z" fill="#629FDD"/>
<path d="M268.398 152.5C271.877 152.5 274.698 149.68 274.698 146.2C274.698 142.721 271.877 139.9 268.398 139.9C264.918 139.9 262.098 142.721 262.098 146.2C262.098 149.68 264.918 152.5 268.398 152.5Z" stroke="#353535" stroke-width="2" stroke-miterlimit="10" stroke-linecap="round" stroke-linejoin="round"/>
<path d="M215.8 232.8C219.279 232.8 222.1 229.98 222.1 226.5C222.1 223.021 219.279 220.2 215.8 220.2C212.321 220.2 209.5 223.021 209.5 226.5C209.5 229.98 212.321 232.8 215.8 232.8Z" fill="#F15A24"/>
<path d="M215.9 232.8C219.379 232.8 222.2 229.98 222.2 226.5C222.2 223.021 219.379 220.2 215.9 220.2C212.42 220.2 209.6 223.021 209.6 226.5C209.6 229.98 212.42 232.8 215.9 232.8Z" stroke="#353535" stroke-width="2" stroke-miterlimit="10" stroke-linecap="round" stroke-linejoin="round"/>
<path d="M249.4 199.6C252.879 199.6 255.7 196.779 255.7 193.3C255.7 189.821 252.879 187 249.4 187C245.92 187 243.1 189.821 243.1 193.3C243.1 196.779 245.92 199.6 249.4 199.6Z" fill="#F15A24"/>
<path d="M249.499 199.6C252.979 199.6 255.799 196.779 255.799 193.3C255.799 189.821 252.979 187 249.499 187C246.02 187 243.199 189.821 243.199 193.3C243.199 196.779 246.02 199.6 249.499 199.6Z" stroke="#353535" stroke-width="2" stroke-miterlimit="10" stroke-linecap="round" stroke-linejoin="round"/>
<path d="M232.8 156.1C236.279 156.1 239.1 153.279 239.1 149.8C239.1 146.321 236.279 143.5 232.8 143.5C229.321 143.5 226.5 146.321 226.5 149.8C226.5 153.279 229.321 156.1 232.8 156.1Z" fill="#F15A24"/>
<path d="M232.8 156.2C236.279 156.2 239.1 153.379 239.1 149.9C239.1 146.421 236.279 143.6 232.8 143.6C229.321 143.6 226.5 146.421 226.5 149.9C226.5 153.379 229.321 156.2 232.8 156.2Z" stroke="#353535" stroke-width="2" stroke-miterlimit="10" stroke-linecap="round" stroke-linejoin="round"/>
<path d="M182.698 199.5C186.178 199.5 188.998 196.679 188.998 193.2C188.998 189.721 186.178 186.9 182.698 186.9C179.219 186.9 176.398 189.721 176.398 193.2C176.398 196.679 179.219 199.5 182.698 199.5Z" fill="#F15A24"/>
<path d="M182.798 199.5C186.277 199.5 189.098 196.679 189.098 193.2C189.098 189.721 186.277 186.9 182.798 186.9C179.319 186.9 176.498 189.721 176.498 193.2C176.498 196.679 179.319 199.5 182.798 199.5Z" stroke="#353535" stroke-width="2" stroke-miterlimit="10" stroke-linecap="round" stroke-linejoin="round"/>
<path d="M204.8 187.6C208.279 187.6 211.1 184.779 211.1 181.3C211.1 177.821 208.279 175 204.8 175C201.321 175 198.5 177.821 198.5 181.3C198.5 184.779 201.321 187.6 204.8 187.6Z" fill="#00A08D"/>
<path d="M204.999 187.7C208.479 187.7 211.299 184.879 211.299 181.4C211.299 177.921 208.479 175.1 204.999 175.1C201.52 175.1 198.699 177.921 198.699 181.4C198.699 184.879 201.52 187.7 204.999 187.7Z" stroke="#353535" stroke-width="2" stroke-miterlimit="10" stroke-linecap="round" stroke-linejoin="round"/>
<path d="M260.3 223.4C263.779 223.4 266.6 220.58 266.6 217.1C266.6 213.621 263.779 210.8 260.3 210.8C256.821 210.8 254 213.621 254 217.1C254 220.58 256.821 223.4 260.3 223.4Z" fill="#00A08D"/>
<path d="M260.499 223.6C263.979 223.6 266.799 220.78 266.799 217.3C266.799 213.821 263.979 211 260.499 211C257.02 211 254.199 213.821 254.199 217.3C254.199 220.78 257.02 223.6 260.499 223.6Z" stroke="#353535" stroke-width="2" stroke-miterlimit="10" stroke-linecap="round" stroke-linejoin="round"/>
<path d="M252.599 131.5C256.078 131.5 258.899 128.679 258.899 125.2C258.899 121.721 256.078 118.9 252.599 118.9C249.119 118.9 246.299 121.721 246.299 125.2C246.299 128.679 249.119 131.5 252.599 131.5Z" fill="#00A08D"/>
<path d="M252.798 131.7C256.277 131.7 259.098 128.879 259.098 125.4C259.098 121.921 256.277 119.1 252.798 119.1C249.319 119.1 246.498 121.921 246.498 125.4C246.498 128.879 249.319 131.7 252.798 131.7Z" stroke="#353535" stroke-width="2" stroke-miterlimit="10" stroke-linecap="round" stroke-linejoin="round"/>
<path d="M187.698 151.7C191.178 151.7 193.998 148.879 193.998 145.4C193.998 141.921 191.178 139.1 187.698 139.1C184.219 139.1 181.398 141.921 181.398 145.4C181.398 148.879 184.219 151.7 187.698 151.7Z" fill="#00A08D"/>
<path d="M187.898 151.8C191.377 151.8 194.198 148.98 194.198 145.5C194.198 142.021 191.377 139.2 187.898 139.2C184.418 139.2 181.598 142.021 181.598 145.5C181.598 148.98 184.418 151.8 187.898 151.8Z" stroke="#353535" stroke-width="2" stroke-miterlimit="10" stroke-linecap="round" stroke-linejoin="round"/>
<path d="M179.499 176.7C182.979 176.7 185.799 173.879 185.799 170.4C185.799 166.921 182.979 164.1 179.499 164.1C176.02 164.1 173.199 166.921 173.199 170.4C173.199 173.879 176.02 176.7 179.499 176.7Z" fill="#FFF892"/>
<path d="M179.599 176.8C183.078 176.8 185.899 173.98 185.899 170.5C185.899 167.021 183.078 164.2 179.599 164.2C176.119 164.2 173.299 167.021 173.299 170.5C173.299 173.98 176.119 176.8 179.599 176.8Z" stroke="#353535" stroke-width="2" stroke-miterlimit="10" stroke-linecap="round" stroke-linejoin="round"/>
<path d="M224.4 206.7C227.879 206.7 230.7 203.879 230.7 200.4C230.7 196.921 227.879 194.1 224.4 194.1C220.92 194.1 218.1 196.921 218.1 200.4C218.1 203.879 220.92 206.7 224.4 206.7Z" fill="#FFF892"/>
<path d="M224.599 206.8C228.078 206.8 230.899 203.98 230.899 200.5C230.899 197.021 228.078 194.2 224.599 194.2C221.119 194.2 218.299 197.021 218.299 200.5C218.299 203.98 221.119 206.8 224.599 206.8Z" stroke="#353535" stroke-width="2" stroke-miterlimit="10" stroke-linecap="round" stroke-linejoin="round"/>
<path d="M275.3 175.1C278.779 175.1 281.6 172.279 281.6 168.8C281.6 165.321 278.779 162.5 275.3 162.5C271.821 162.5 269 165.321 269 168.8C269 172.279 271.821 175.1 275.3 175.1Z" fill="#FFF892"/>
<path d="M275.499 175.2C278.979 175.2 281.799 172.379 281.799 168.9C281.799 165.421 278.979 162.6 275.499 162.6C272.02 162.6 269.199 165.421 269.199 168.9C269.199 172.379 272.02 175.2 275.499 175.2Z" stroke="#353535" stroke-width="2" stroke-miterlimit="10" stroke-linecap="round" stroke-linejoin="round"/>
<path d="M226.499 130.7C229.979 130.7 232.799 127.879 232.799 124.4C232.799 120.921 229.979 118.1 226.499 118.1C223.02 118.1 220.199 120.921 220.199 124.4C220.199 127.879 223.02 130.7 226.499 130.7Z" fill="#FFF892"/>
<path d="M226.698 130.8C230.178 130.8 232.998 127.98 232.998 124.5C232.998 121.021 230.178 118.2 226.698 118.2C223.219 118.2 220.398 121.021 220.398 124.5C220.398 127.98 223.219 130.8 226.698 130.8Z" stroke="#353535" stroke-width="2" stroke-miterlimit="10" stroke-linecap="round" stroke-linejoin="round"/>
<path d="M253.3 175.1C256.779 175.1 259.6 172.279 259.6 168.8C259.6 165.321 256.779 162.5 253.3 162.5C249.821 162.5 247 165.321 247 168.8C247 172.279 249.821 175.1 253.3 175.1Z" fill="#606060"/>
<path d="M253.499 175.2C256.979 175.2 259.799 172.379 259.799 168.9C259.799 165.421 256.979 162.6 253.499 162.6C250.02 162.6 247.199 165.421 247.199 168.9C247.199 172.379 250.02 175.2 253.499 175.2Z" stroke="#353535" stroke-width="2" stroke-miterlimit="10" stroke-linecap="round" stroke-linejoin="round"/>
<path d="M274.999 202.9C278.479 202.9 281.299 200.08 281.299 196.6C281.299 193.121 278.479 190.3 274.999 190.3C271.52 190.3 268.699 193.121 268.699 196.6C268.699 200.08 271.52 202.9 274.999 202.9Z" fill="#606060"/>
<path d="M275.198 203C278.678 203 281.498 200.18 281.498 196.7C281.498 193.221 278.678 190.4 275.198 190.4C271.719 190.4 268.898 193.221 268.898 196.7C268.898 200.18 271.719 203 275.198 203Z" stroke="#353535" stroke-width="2" stroke-miterlimit="10" stroke-linecap="round" stroke-linejoin="round"/>
<path d="M209.999 164.1C213.479 164.1 216.299 161.279 216.299 157.8C216.299 154.321 213.479 151.5 209.999 151.5C206.52 151.5 203.699 154.321 203.699 157.8C203.699 161.279 206.52 164.1 209.999 164.1Z" fill="#606060"/>
<path d="M210.198 164.2C213.678 164.2 216.498 161.379 216.498 157.9C216.498 154.421 213.678 151.6 210.198 151.6C206.719 151.6 203.898 154.421 203.898 157.9C203.898 161.379 206.719 164.2 210.198 164.2Z" stroke="#353535" stroke-width="2" stroke-miterlimit="10" stroke-linecap="round" stroke-linejoin="round"/>
<path d="M196.698 217.6C200.178 217.6 202.998 214.779 202.998 211.3C202.998 207.821 200.178 205 196.698 205C193.219 205 190.398 207.821 190.398 211.3C190.398 214.779 193.219 217.6 196.698 217.6Z" fill="#606060"/>
<path d="M196.898 217.8C200.377 217.8 203.198 214.98 203.198 211.5C203.198 208.021 200.377 205.2 196.898 205.2C193.418 205.2 190.598 208.021 190.598 211.5C190.598 214.98 193.418 217.8 196.898 217.8Z" stroke="#353535" stroke-width="2" stroke-miterlimit="10" stroke-linecap="round" stroke-linejoin="round"/>
<path d="M228.4 242C266.232 242 296.9 211.332 296.9 173.5C296.9 135.669 266.232 105 228.4 105C190.569 105 159.9 135.669 159.9 173.5C159.9 211.332 190.569 242 228.4 242Z" stroke="#353535" stroke-width="3" stroke-miterlimit="10" stroke-linecap="round" stroke-linejoin="round"/>
<path d="M120.899 92.2003C145.586 92.2003 165.599 72.1874 165.599 47.5003C165.599 22.8132 145.586 2.80029 120.899 2.80029C96.2121 2.80029 76.1992 22.8132 76.1992 47.5003C76.1992 72.1874 96.2121 92.2003 120.899 92.2003Z" stroke="#353535" stroke-width="3" stroke-miterlimit="10" stroke-linecap="round" stroke-linejoin="round"/>
<path d="M339.399 96.9005C364.086 96.9005 384.099 76.8876 384.099 52.2005C384.099 27.5134 364.086 7.50049 339.399 7.50049C314.712 7.50049 294.699 27.5134 294.699 52.2005C294.699 76.8876 314.712 96.9005 339.399 96.9005Z" stroke="#353535" stroke-width="3" stroke-miterlimit="10" stroke-linecap="round" stroke-linejoin="round"/>
<path d="M399.499 275.6C424.186 275.6 444.199 255.587 444.199 230.9C444.199 206.213 424.186 186.2 399.499 186.2C374.812 186.2 354.799 206.213 354.799 230.9C354.799 255.587 374.812 275.6 399.499 275.6Z" stroke="#353535" stroke-width="3" stroke-miterlimit="10" stroke-linecap="round" stroke-linejoin="round"/>
<path d="M55.7996 271.1C80.4867 271.1 100.5 251.087 100.5 226.4C100.5 201.713 80.4867 181.7 55.7996 181.7C31.1125 181.7 11.0996 201.713 11.0996 226.4C11.0996 251.087 31.1125 271.1 55.7996 271.1Z" stroke="#353535" stroke-width="3" stroke-miterlimit="10" stroke-linecap="round" stroke-linejoin="round"/>
<path d="M227.399 377.5C252.086 377.5 272.099 357.487 272.099 332.8C272.099 308.113 252.086 288.1 227.399 288.1C202.712 288.1 182.699 308.113 182.699 332.8C182.699 357.487 202.712 377.5 227.399 377.5Z" stroke="#353535" stroke-width="3" stroke-miterlimit="10" stroke-linecap="round" stroke-linejoin="round"/>
<path d="M162.5 192.3L161.1 192.7" stroke="#353535" stroke-width="3" stroke-linecap="round" stroke-linejoin="round"/>
<path d="M151.201 195.6L104.801 209.4" stroke="#353535" stroke-width="3" stroke-linecap="round" stroke-linejoin="round" stroke-dasharray="3.09 3.09"/>
<path d="M99.9004 210.9L98.4004 211.3" stroke="#353535" stroke-width="3" stroke-linecap="round" stroke-linejoin="round"/>
<path d="M183.301 122L182.301 120.9" stroke="#353535" stroke-width="3" stroke-linecap="round" stroke-linejoin="round"/>
<path d="M175.601 113.3L152.801 87.7002" stroke="#353535" stroke-width="3" stroke-linecap="round" stroke-linejoin="round" stroke-dasharray="3.03 3.03"/>
<path d="M149.4 84.0003L148.4 82.8003" stroke="#353535" stroke-width="3" stroke-linecap="round" stroke-linejoin="round"/>
<path d="M355.8 217L354.4 216.5" stroke="#353535" stroke-width="3" stroke-linecap="round" stroke-linejoin="round"/>
<path d="M344.8 213.2L299.6 197.4" stroke="#353535" stroke-width="3" stroke-linecap="round" stroke-linejoin="round" stroke-dasharray="3.05 3.05"/>
<path d="M294.8 195.7L293.4 195.2" stroke="#353535" stroke-width="3" stroke-linecap="round" stroke-linejoin="round"/>
<path d="M309.6 86.1001L308.6 87.2001" stroke="#353535" stroke-width="3" stroke-linecap="round" stroke-linejoin="round"/>
<path d="M301.901 94.3003L279.201 118.5" stroke="#353535" stroke-width="3" stroke-linecap="round" stroke-linejoin="round" stroke-dasharray="2.93 2.93"/>
<path d="M275.9 122.1L274.9 123.2" stroke="#353535" stroke-width="3" stroke-linecap="round" stroke-linejoin="round"/>
<path d="M227.9 242V243.5" stroke="#353535" stroke-width="3" stroke-linecap="round" stroke-linejoin="round"/>
<path d="M227.8 255.101L227.5 279.301" stroke="#353535" stroke-width="3" stroke-linecap="round" stroke-linejoin="round" stroke-dasharray="3.46 3.46"/>
<path d="M227.5 285V286.5" stroke="#353535" stroke-width="3" stroke-linecap="round" stroke-linejoin="round"/>
<path d="M39.7004 219.9C43.1798 219.9 46.0004 217.08 46.0004 213.6C46.0004 210.121 43.1798 207.3 39.7004 207.3C36.221 207.3 33.4004 210.121 33.4004 213.6C33.4004 217.08 36.221 219.9 39.7004 219.9Z" fill="#FFF892"/>
<path d="M39.8996 220.1C43.379 220.1 46.1996 217.28 46.1996 213.8C46.1996 210.321 43.379 207.5 39.8996 207.5C36.4202 207.5 33.5996 210.321 33.5996 213.8C33.5996 217.28 36.4202 220.1 39.8996 220.1Z" stroke="#353535" stroke-width="2" stroke-miterlimit="10" stroke-linecap="round" stroke-linejoin="round"/>
<path d="M70.6008 219.9C74.0802 219.9 76.9008 217.08 76.9008 213.6C76.9008 210.121 74.0802 207.3 70.6008 207.3C67.1214 207.3 64.3008 210.121 64.3008 213.6C64.3008 217.08 67.1214 219.9 70.6008 219.9Z" fill="#FFF892"/>
<path d="M70.8 220.1C74.2794 220.1 77.1 217.28 77.1 213.8C77.1 210.321 74.2794 207.5 70.8 207.5C67.3206 207.5 64.5 210.321 64.5 213.8C64.5 217.28 67.3206 220.1 70.8 220.1Z" stroke="#353535" stroke-width="2" stroke-miterlimit="10" stroke-linecap="round" stroke-linejoin="round"/>
<path d="M39.7004 248.2C43.1798 248.2 46.0004 245.379 46.0004 241.9C46.0004 238.421 43.1798 235.6 39.7004 235.6C36.221 235.6 33.4004 238.421 33.4004 241.9C33.4004 245.379 36.221 248.2 39.7004 248.2Z" fill="#FFF892"/>
<path d="M39.8996 248.3C43.379 248.3 46.1996 245.48 46.1996 242C46.1996 238.521 43.379 235.7 39.8996 235.7C36.4202 235.7 33.5996 238.521 33.5996 242C33.5996 245.48 36.4202 248.3 39.8996 248.3Z" stroke="#353535" stroke-width="2" stroke-miterlimit="10" stroke-linecap="round" stroke-linejoin="round"/>
<path d="M70.6008 248.2C74.0802 248.2 76.9008 245.379 76.9008 241.9C76.9008 238.421 74.0802 235.6 70.6008 235.6C67.1214 235.6 64.3008 238.421 64.3008 241.9C64.3008 245.379 67.1214 248.2 70.6008 248.2Z" fill="#FFF892"/>
<path d="M70.8 248.3C74.2794 248.3 77.1 245.48 77.1 242C77.1 238.521 74.2794 235.7 70.8 235.7C67.3206 235.7 64.5 238.521 64.5 242C64.5 245.48 67.3206 248.3 70.8 248.3Z" stroke="#353535" stroke-width="2" stroke-miterlimit="10" stroke-linecap="round" stroke-linejoin="round"/>
<path d="M211.499 326.5C214.979 326.5 217.799 323.68 217.799 320.2C217.799 316.721 214.979 313.9 211.499 313.9C208.02 313.9 205.199 316.721 205.199 320.2C205.199 323.68 208.02 326.5 211.499 326.5Z" fill="#F15A24"/>
<path d="M211.698 326.6C215.178 326.6 217.998 323.78 217.998 320.3C217.998 316.821 215.178 314 211.698 314C208.219 314 205.398 316.821 205.398 320.3C205.398 323.78 208.219 326.6 211.698 326.6Z" stroke="#353535" stroke-width="2" stroke-miterlimit="10" stroke-linecap="round" stroke-linejoin="round"/>
<path d="M242.4 326.5C245.879 326.5 248.7 323.68 248.7 320.2C248.7 316.721 245.879 313.9 242.4 313.9C238.92 313.9 236.1 316.721 236.1 320.2C236.1 323.68 238.92 326.5 242.4 326.5Z" fill="#F15A24"/>
<path d="M242.599 326.6C246.078 326.6 248.899 323.78 248.899 320.3C248.899 316.821 246.078 314 242.599 314C239.119 314 236.299 316.821 236.299 320.3C236.299 323.78 239.119 326.6 242.599 326.6Z" stroke="#353535" stroke-width="2" stroke-miterlimit="10" stroke-linecap="round" stroke-linejoin="round"/>
<path d="M211.499 354.701C214.979 354.701 217.799 351.88 217.799 348.401C217.799 344.921 214.979 342.101 211.499 342.101C208.02 342.101 205.199 344.921 205.199 348.401C205.199 351.88 208.02 354.701 211.499 354.701Z" fill="#F15A24"/>
<path d="M211.698 354.901C215.178 354.901 217.998 352.08 217.998 348.601C217.998 345.121 215.178 342.301 211.698 342.301C208.219 342.301 205.398 345.121 205.398 348.601C205.398 352.08 208.219 354.901 211.698 354.901Z" stroke="#353535" stroke-width="2" stroke-miterlimit="10" stroke-linecap="round" stroke-linejoin="round"/>
<path d="M242.4 354.701C245.879 354.701 248.7 351.88 248.7 348.401C248.7 344.921 245.879 342.101 242.4 342.101C238.92 342.101 236.1 344.921 236.1 348.401C236.1 351.88 238.92 354.701 242.4 354.701Z" fill="#F15A24"/>
<path d="M242.599 354.901C246.078 354.901 248.899 352.08 248.899 348.601C248.899 345.121 246.078 342.301 242.599 342.301C239.119 342.301 236.299 345.121 236.299 348.601C236.299 352.08 239.119 354.901 242.599 354.901Z" stroke="#353535" stroke-width="2" stroke-miterlimit="10" stroke-linecap="round" stroke-linejoin="round"/>
<path d="M323.2 44.4003C326.68 44.4003 329.5 41.5797 329.5 38.1003C329.5 34.6209 326.68 31.8003 323.2 31.8003C319.721 31.8003 316.9 34.6209 316.9 38.1003C316.9 41.5797 319.721 44.4003 323.2 44.4003Z" fill="#00A08D"/>
<path d="M323.4 44.5004C326.879 44.5004 329.7 41.6798 329.7 38.2004C329.7 34.721 326.879 31.9004 323.4 31.9004C319.92 31.9004 317.1 34.721 317.1 38.2004C317.1 41.6798 319.92 44.5004 323.4 44.5004Z" stroke="#353535" stroke-width="2" stroke-miterlimit="10" stroke-linecap="round" stroke-linejoin="round"/>
<path d="M354.101 44.4003C357.58 44.4003 360.401 41.5797 360.401 38.1003C360.401 34.6209 357.58 31.8003 354.101 31.8003C350.621 31.8003 347.801 34.6209 347.801 38.1003C347.801 41.5797 350.621 44.4003 354.101 44.4003Z" fill="#00A08D"/>
<path d="M354.2 44.5004C357.68 44.5004 360.5 41.6798 360.5 38.2004C360.5 34.721 357.68 31.9004 354.2 31.9004C350.721 31.9004 347.9 34.721 347.9 38.2004C347.9 41.6798 350.721 44.5004 354.2 44.5004Z" stroke="#353535" stroke-width="2" stroke-miterlimit="10" stroke-linecap="round" stroke-linejoin="round"/>
<path d="M323.2 72.6005C326.68 72.6005 329.5 69.7799 329.5 66.3005C329.5 62.8211 326.68 60.0005 323.2 60.0005C319.721 60.0005 316.9 62.8211 316.9 66.3005C316.9 69.7799 319.721 72.6005 323.2 72.6005Z" fill="#00A08D"/>
<path d="M323.4 72.8007C326.879 72.8007 329.7 69.9801 329.7 66.5007C329.7 63.0213 326.879 60.2007 323.4 60.2007C319.92 60.2007 317.1 63.0213 317.1 66.5007C317.1 69.9801 319.92 72.8007 323.4 72.8007Z" stroke="#353535" stroke-width="2" stroke-miterlimit="10" stroke-linecap="round" stroke-linejoin="round"/>
<path d="M354.101 72.6005C357.58 72.6005 360.401 69.7799 360.401 66.3005C360.401 62.8211 357.58 60.0005 354.101 60.0005C350.621 60.0005 347.801 62.8211 347.801 66.3005C347.801 69.7799 350.621 72.6005 354.101 72.6005Z" fill="#00A08D"/>
<path d="M354.2 72.8007C357.68 72.8007 360.5 69.9801 360.5 66.5007C360.5 63.0213 357.68 60.2007 354.2 60.2007C350.721 60.2007 347.9 63.0213 347.9 66.5007C347.9 69.9801 350.721 72.8007 354.2 72.8007Z" stroke="#353535" stroke-width="2" stroke-miterlimit="10" stroke-linecap="round" stroke-linejoin="round"/>
<path d="M104.3 40.8002C107.779 40.8002 110.6 37.9796 110.6 34.5002C110.6 31.0208 107.779 28.2002 104.3 28.2002C100.821 28.2002 98 31.0208 98 34.5002C98 37.9796 100.821 40.8002 104.3 40.8002Z" fill="#606060"/>
<path d="M104.499 41.0004C107.979 41.0004 110.799 38.1798 110.799 34.7004C110.799 31.221 107.979 28.4004 104.499 28.4004C101.02 28.4004 98.1992 31.221 98.1992 34.7004C98.1992 38.1798 101.02 41.0004 104.499 41.0004Z" stroke="#353535" stroke-width="2" stroke-miterlimit="10" stroke-linecap="round" stroke-linejoin="round"/>
<path d="M135.2 40.8002C138.68 40.8002 141.5 37.9796 141.5 34.5002C141.5 31.0208 138.68 28.2002 135.2 28.2002C131.721 28.2002 128.9 31.0208 128.9 34.5002C128.9 37.9796 131.721 40.8002 135.2 40.8002Z" fill="#606060"/>
<path d="M135.4 41.0004C138.879 41.0004 141.7 38.1798 141.7 34.7004C141.7 31.221 138.879 28.4004 135.4 28.4004C131.92 28.4004 129.1 31.221 129.1 34.7004C129.1 38.1798 131.92 41.0004 135.4 41.0004Z" stroke="#353535" stroke-width="2" stroke-miterlimit="10" stroke-linecap="round" stroke-linejoin="round"/>
<path d="M104.3 69.1C107.779 69.1 110.6 66.2794 110.6 62.8C110.6 59.3206 107.779 56.5 104.3 56.5C100.821 56.5 98 59.3206 98 62.8C98 66.2794 100.821 69.1 104.3 69.1Z" fill="#606060"/>
<path d="M104.499 69.2001C107.979 69.2001 110.799 66.3795 110.799 62.9001C110.799 59.4207 107.979 56.6001 104.499 56.6001C101.02 56.6001 98.1992 59.4207 98.1992 62.9001C98.1992 66.3795 101.02 69.2001 104.499 69.2001Z" stroke="#353535" stroke-width="2" stroke-miterlimit="10" stroke-linecap="round" stroke-linejoin="round"/>
<path d="M135.2 69.1C138.68 69.1 141.5 66.2794 141.5 62.8C141.5 59.3206 138.68 56.5 135.2 56.5C131.721 56.5 128.9 59.3206 128.9 62.8C128.9 66.2794 131.721 69.1 135.2 69.1Z" fill="#606060"/>
<path d="M135.4 69.2001C138.879 69.2001 141.7 66.3795 141.7 62.9001C141.7 59.4207 138.879 56.6001 135.4 56.6001C131.92 56.6001 129.1 59.4207 129.1 62.9001C129.1 66.3795 131.92 69.2001 135.4 69.2001Z" stroke="#353535" stroke-width="2" stroke-miterlimit="10" stroke-linecap="round" stroke-linejoin="round"/>
<path d="M383.9 225.3C387.379 225.3 390.2 222.48 390.2 219C390.2 215.521 387.379 212.7 383.9 212.7C380.42 212.7 377.6 215.521 377.6 219C377.6 222.48 380.42 225.3 383.9 225.3Z" fill="#629FDD"/>
<path d="M384.099 225.5C387.578 225.5 390.399 222.68 390.399 219.2C390.399 215.721 387.578 212.9 384.099 212.9C380.619 212.9 377.799 215.721 377.799 219.2C377.799 222.68 380.619 225.5 384.099 225.5Z" stroke="#353535" stroke-width="2" stroke-miterlimit="10" stroke-linecap="round" stroke-linejoin="round"/>
<path d="M414.8 225.3C418.279 225.3 421.1 222.48 421.1 219C421.1 215.521 418.279 212.7 414.8 212.7C411.321 212.7 408.5 215.521 408.5 219C408.5 222.48 411.321 225.3 414.8 225.3Z" fill="#629FDD"/>
<path d="M414.999 225.5C418.479 225.5 421.299 222.68 421.299 219.2C421.299 215.721 418.479 212.9 414.999 212.9C411.52 212.9 408.699 215.721 408.699 219.2C408.699 222.68 411.52 225.5 414.999 225.5Z" stroke="#353535" stroke-width="2" stroke-miterlimit="10" stroke-linecap="round" stroke-linejoin="round"/>
<path d="M383.9 253.5C387.379 253.5 390.2 250.68 390.2 247.2C390.2 243.721 387.379 240.9 383.9 240.9C380.42 240.9 377.6 243.721 377.6 247.2C377.6 250.68 380.42 253.5 383.9 253.5Z" fill="#629FDD"/>
<path d="M384.099 253.701C387.578 253.701 390.399 250.88 390.399 247.401C390.399 243.921 387.578 241.101 384.099 241.101C380.619 241.101 377.799 243.921 377.799 247.401C377.799 250.88 380.619 253.701 384.099 253.701Z" stroke="#353535" stroke-width="2" stroke-miterlimit="10" stroke-linecap="round" stroke-linejoin="round"/>
<path d="M414.8 253.5C418.279 253.5 421.1 250.68 421.1 247.2C421.1 243.721 418.279 240.9 414.8 240.9C411.321 240.9 408.5 243.721 408.5 247.2C408.5 250.68 411.321 253.5 414.8 253.5Z" fill="#629FDD"/>
<path d="M414.999 253.701C418.479 253.701 421.299 250.88 421.299 247.401C421.299 243.921 418.479 241.101 414.999 241.101C411.52 241.101 408.699 243.921 408.699 247.401C408.699 250.88 411.52 253.701 414.999 253.701Z" stroke="#353535" stroke-width="2" stroke-miterlimit="10" stroke-linecap="round" stroke-linejoin="round"/>
<path d="M6.6 199.2C4.9 199 3.2 198.8 1.5 198.6" stroke="#353535" stroke-width="2" stroke-miterlimit="10" stroke-linecap="round" stroke-linejoin="round"/>
<path d="M21.1992 181.6C19.6992 180 18.1992 178.4 16.6992 176.8" stroke="#353535" stroke-width="2" stroke-miterlimit="10" stroke-linecap="round" stroke-linejoin="round"/>
<path d="M43.5 171.6C43.6 169.5 43.7 167.4 43.8 165.3" stroke="#353535" stroke-width="2" stroke-miterlimit="10" stroke-linecap="round" stroke-linejoin="round"/>
<path d="M390.199 87.2002C391.899 87.4002 393.599 87.6002 395.299 87.8002" stroke="#353535" stroke-width="2" stroke-miterlimit="10" stroke-linecap="round" stroke-linejoin="round"/>
<path d="M375.699 104.8C377.199 106.4 378.699 108 380.199 109.6" stroke="#353535" stroke-width="2" stroke-miterlimit="10" stroke-linecap="round" stroke-linejoin="round"/>
<path d="M353.3 114.8C353.2 116.9 353.1 119 353 121.1" stroke="#353535" stroke-width="2" stroke-miterlimit="10" stroke-linecap="round" stroke-linejoin="round"/>
</svg>
