<svg width="378" height="332" viewBox="0 0 378 332" fill="none" xmlns="http://www.w3.org/2000/svg">
<path opacity="0.1" d="M145.1 303.6C145.5 303.6 145.9 303.7 146.4 303.7C155.3 304.9 163.9 307.4 172.1 311.3C188.9 319.3 205.4 328.3 224 330.7C242.1 333 260.699 328.8 276.9 320.6C284.199 316.9 291.1 312.2 297 306.3C303.299 300 307.799 292.7 311.9 284.8C320.1 269 327.1 252.4 337.9 238.2C340.9 234.3 344.1 230.5 347.6 227.1C352.4 222.4 357 217.3 360.9 211.8C367.199 202.9 372.699 193.7 375.299 183.2C380.5 162.7 373.799 141 363.799 122.3C353.799 103.6 340.6 86.7999 331.1 67.8999C319.7 45.2999 312 17.8999 289.4 6.0999C271.199 -3.4001 248.9 0.499904 229.6 7.5999C210.3 14.6999 191.8 24.8999 171.4 26.8999C143.7 29.6999 117.1 18.7999 90.6995 19.7999C47.6995 21.4999 0.999523 58.2999 -0.000476963 103.6C-0.500477 126.4 19.2995 131 31.7995 146C46.5995 163.8 39.3995 188.9 31.2995 208C22.6995 228.1 12.6995 251 22.0995 270.7C32.6995 293 61.8995 298.5 86.6995 298.4C106.2 298.3 127.4 296.8 145.1 303.6Z" fill="#629FDD"/>
<path d="M223.598 206.3L309.798 120.1C319.998 128.9 329.198 138.8 337.098 149.7C353.498 172.1 364.398 198.4 367.998 226.9C368.498 230.5 365.698 233.7 362.098 233.7H247.298C244.898 233.7 242.998 232 242.398 229.8C241.598 226.6 240.298 223.6 238.598 220.7C235.198 215.2 229.998 210.4 223.498 206.6L223.598 206.3Z" fill="#00A08D"/>
<path d="M309.799 120.2L223.599 206.4L223.399 206.7C218.599 203.9 212.999 201.6 206.999 200.1C201.299 198.7 195.199 197.9 188.799 197.9V75.8999C188.899 75.8999 188.899 75.8999 188.999 75.8999C208.199 75.8999 226.599 78.6999 243.999 83.9999C268.699 91.5999 290.999 104 309.799 120.2Z" fill="#629FDD"/>
<path d="M188.898 75.8999V197.9C182.098 197.9 175.598 198.8 169.598 200.4C164.098 201.9 159.098 203.9 154.698 206.5L154.598 206.4L68.3984 120.2C86.2984 104.8 107.598 92.6999 130.898 85.0999C149.098 79.0999 168.598 75.8999 188.898 75.8999Z" fill="#FFF892"/>
<path d="M68.3986 120.2L154.599 206.4L154.699 206.5C147.499 210.6 141.799 216.1 138.399 222.3C137.099 224.7 136.099 227.2 135.499 229.8C134.999 232.1 132.999 233.8 130.599 233.8H16.0986C12.4986 233.8 9.69858 230.6 10.1986 227C13.6986 199.4 24.0986 173.8 39.6986 151.8C47.8986 140.1 57.4986 129.5 68.3986 120.2Z" fill="#F15A24"/>
<path d="M361.499 233.7H246.699C244.299 233.7 242.399 232 241.799 229.8C240.999 226.6 239.699 223.6 237.999 220.7C234.599 215.2 229.399 210.4 222.899 206.6C218.099 203.8 212.499 201.5 206.499 200C200.799 198.6 194.699 197.8 188.299 197.8C181.499 197.8 174.999 198.7 168.999 200.3C163.499 201.8 158.499 203.8 154.099 206.4C146.899 210.5 141.199 216 137.799 222.2C136.499 224.6 135.499 227.1 134.899 229.7C134.399 232 132.399 233.7 129.999 233.7H15.5986C11.9986 233.7 9.19858 230.5 9.69858 226.9C13.1986 199.3 23.5986 173.7 39.1986 151.7C47.3986 140.1 57.0986 129.5 67.8986 120.1C85.7986 104.6 107.099 92.5999 130.399 84.9999C148.599 79.0999 168.099 75.8999 188.299 75.8999H188.499C207.699 75.8999 226.199 78.6999 243.499 83.9999C268.099 91.4999 290.499 104 309.199 120.1C319.399 128.9 328.599 138.8 336.499 149.7C352.899 172.1 363.799 198.4 367.399 226.9C367.899 230.5 365.099 233.7 361.499 233.7Z" stroke="#353535" stroke-miterlimit="10" stroke-linecap="round" stroke-linejoin="round"/>
<path d="M234.299 142.9L199.599 233.5C199.299 234.4 198.399 235 197.399 235H178.199C176.399 235 175.299 233 176.299 231.4L234.299 142.9Z" fill="#353535"/>
<path opacity="0.7" d="M123.3 276C121.7 276 120.4 277.3 120.4 278.9C120.4 280.5 121.7 281.799 123.3 281.799C124.9 281.799 126.2 280.5 126.2 278.9C126.2 277.3 124.9 276 123.3 276Z" fill="#B7D3EF"/>
<path opacity="0.7" d="M76.8996 52.6997C73.8996 52.6997 71.5996 55.0997 71.5996 57.9997C71.5996 60.9997 73.9996 63.3997 76.8996 63.3997C79.8996 63.3997 82.2996 60.9997 82.2996 57.9997C82.1996 55.0997 79.7996 52.6997 76.8996 52.6997Z" fill="#B7D3EF"/>
<path opacity="0.7" d="M55.0996 95.2998C53.6996 95.2998 52.5996 96.3998 52.5996 97.7998C52.5996 99.1998 53.6996 100.3 55.0996 100.3C56.4996 100.3 57.5996 99.1998 57.5996 97.7998C57.5996 96.3998 56.3996 95.2998 55.0996 95.2998Z" fill="#B7D3EF"/>
<path opacity="0.7" d="M258.899 288C256.699 288 254.799 289.8 254.799 292.1C254.799 294.3 256.599 296.2 258.899 296.2C261.099 296.2 262.999 294.4 262.999 292.1C262.999 289.8 261.199 288 258.899 288Z" fill="#B7D3EF"/>
<path opacity="0.7" d="M307.2 78.2998C305 78.2998 303.1 80.0998 303.1 82.3998C303.1 84.5998 304.9 86.4998 307.2 86.4998C309.5 86.4998 311.3 84.6998 311.3 82.3998C311.2 80.0998 309.4 78.2998 307.2 78.2998Z" fill="#B7D3EF"/>
<g opacity="0.7">
<path d="M275.9 47.7997H272.9V48.7997C272.9 49.5997 273.6 50.2997 274.4 50.2997C275.2 50.2997 275.9 49.5997 275.9 48.7997V47.7997ZM274.4 42.1997C273.6 42.1997 272.9 42.8997 272.9 43.6997V44.6997H275.9V43.6997C275.9 42.8997 275.3 42.1997 274.4 42.1997Z" fill="#A2A2A2"/>
<path d="M277 44.7998H276H273H272C271.2 44.7998 270.5 45.4998 270.5 46.2998C270.5 47.0998 271.2 47.7998 272 47.7998H273H276H277C277.8 47.7998 278.5 47.0998 278.5 46.2998C278.5 45.3998 277.8 44.7998 277 44.7998Z" fill="#A2A2A2"/>
</g>
<g opacity="0.7">
<path d="M210.6 258.5H207.6V259.5C207.6 260.3 208.3 261 209.1 261C209.9 261 210.6 260.3 210.6 259.5V258.5ZM209.1 253C208.3 253 207.6 253.7 207.6 254.5V255.5H210.6V254.5C210.6 253.7 210 253 209.1 253Z" fill="#A2A2A2"/>
<path d="M211.6 255.5H210.6H207.6H206.6C205.8 255.5 205.1 256.2 205.1 257C205.1 257.8 205.8 258.5 206.6 258.5H207.6H210.6H211.6C212.4 258.5 213.1 257.8 213.1 257C213.1 256.2 212.5 255.5 211.6 255.5Z" fill="#A2A2A2"/>
</g>
<g opacity="0.7">
<path d="M139.199 54.1997H136.199V55.1997C136.199 55.9997 136.899 56.6997 137.699 56.6997C138.499 56.6997 139.199 55.9997 139.199 55.1997V54.1997ZM137.699 48.6997C136.899 48.6997 136.199 49.3997 136.199 50.1997V51.1997H139.199V50.1997C139.199 49.3997 138.499 48.6997 137.699 48.6997Z" fill="#A2A2A2"/>
<path d="M140.199 51.1997H139.199H136.199H135.199C134.399 51.1997 133.699 51.8997 133.699 52.6997C133.699 53.4997 134.399 54.1997 135.199 54.1997H136.199H139.199H140.199C140.999 54.1997 141.699 53.4997 141.699 52.6997C141.699 51.8997 140.999 51.1997 140.199 51.1997Z" fill="#A2A2A2"/>
</g>
<g opacity="0.7">
<path d="M78.5996 252.2H75.5996V255.8C75.5996 256.6 76.2996 257.3 77.0996 257.3C77.8996 257.3 78.5996 256.6 78.5996 255.8V252.2ZM77.0996 244.1C76.2996 244.1 75.5996 244.8 75.5996 245.6V249.2H78.5996V245.6C78.5996 244.8 77.9996 244.1 77.0996 244.1Z" fill="#A2A2A2"/>
<path d="M82.3 249.2H78.7H75.7H72C71.2 249.2 70.5 249.9 70.5 250.7C70.5 251.5 71.2 252.2 72 252.2H75.6H78.6H82.2C83 252.2 83.7 251.5 83.7 250.7C83.8 249.9 83.1 249.2 82.3 249.2Z" fill="#A2A2A2"/>
</g>
</svg>
